<svg width="46" height="43" viewBox="0 0 46 43" fill="none" xmlns="http://www.w3.org/2000/svg">
<g id="&#240;&#159;&#166;&#134; icon &#34;Eye Slash&#34;">
<path id="Vector" d="M45.2203 39.5566L2.86381 0.294786C2.74764 0.184496 2.61428 0.102418 2.47135 0.0532389C2.32842 0.00405979 2.17872 -0.0112577 2.0308 0.00816097C1.88288 0.0275797 1.73963 0.0813543 1.60924 0.166414C1.47884 0.251475 1.36386 0.366155 1.27084 0.503907L0.562539 1.55287C0.469305 1.69067 0.399902 1.84892 0.358302 2.01855C0.316702 2.18819 0.303722 2.36589 0.320103 2.54148C0.336484 2.71707 0.381906 2.88711 0.453769 3.04186C0.525632 3.19662 0.622526 3.33305 0.738906 3.44336L43.0954 42.7052C43.2115 42.8155 43.3449 42.8976 43.4878 42.9468C43.6308 42.9959 43.7805 43.0113 43.9284 42.9918C44.0763 42.9724 44.2195 42.9186 44.3499 42.8336C44.4803 42.7485 44.5953 42.6338 44.6883 42.4961L45.3966 41.4471C45.4899 41.3093 45.5593 41.1511 45.6009 40.9814C45.6425 40.8118 45.6555 40.6341 45.6391 40.4585C45.6227 40.2829 45.5773 40.1129 45.5054 39.9581C45.4335 39.8034 45.3366 39.6669 45.2203 39.5566ZM21.3356 12.3012L30.8828 21.1515C30.7256 16.1174 27.2634 12.0938 22.9796 12.0938C22.427 12.095 21.876 12.1645 21.3356 12.3012ZM24.6236 30.6996L15.0764 21.8494C15.2343 26.8826 18.6965 30.9062 22.9796 30.9062C23.5321 30.9049 24.083 30.8356 24.6236 30.6996ZM22.9796 9.40625C29.967 9.40625 36.3729 14.0254 39.8322 21.5C38.9842 23.3396 37.9365 25.0393 36.7157 26.5559L39.3888 29.0334C40.8771 27.1456 42.138 25.0228 43.1357 22.7253C43.2978 22.3453 43.3822 21.9254 43.3822 21.4996C43.3822 21.0737 43.2978 20.6539 43.1357 20.2738C39.2911 11.3874 31.6867 5.375 22.9796 5.375C20.3801 5.375 17.9004 5.96289 15.5686 6.95475L18.8559 10.0025C20.1974 9.64141 21.5715 9.40625 22.9796 9.40625ZM22.9796 33.5938C15.9922 33.5938 9.58701 28.9746 6.12696 21.5C6.97606 19.6605 8.02503 17.9609 9.24703 16.445L6.5739 13.9674C5.08586 15.855 3.82517 17.9775 2.82769 20.2747C2.66566 20.6547 2.58124 21.0746 2.58124 21.5004C2.58124 21.9263 2.66566 22.3461 2.82769 22.7262C6.66881 31.6126 14.2731 37.625 22.9796 37.625C25.5791 37.625 28.0588 37.0329 30.3906 36.0453L27.1033 32.9983C25.7618 33.3586 24.3884 33.5938 22.9796 33.5938Z" fill="black"/>
</g>
</svg>
