<svg width="40" height="32" viewBox="0 0 40 32" fill="none" xmlns="http://www.w3.org/2000/svg">
<path id="Vector" d="M33.2917 0H5.875C4.31685 0 2.82252 0.618972 1.72075 1.72075C0.618972 2.82252 0 4.31685 0 5.875V25.4583C0 27.0165 0.618972 28.5108 1.72075 29.6126C2.82252 30.7144 4.31685 31.3333 5.875 31.3333H33.2917C34.8498 31.3333 36.3441 30.7144 37.4459 29.6126C38.5477 28.5108 39.1667 27.0165 39.1667 25.4583V5.875C39.1667 4.31685 38.5477 2.82252 37.4459 1.72075C36.3441 0.618972 34.8498 0 33.2917 0ZM31.9796 3.91667L19.5833 13.2188L7.18708 3.91667H31.9796ZM33.2917 27.4167H5.875C5.35562 27.4167 4.85751 27.2103 4.49025 26.8431C4.12299 26.4758 3.91667 25.9777 3.91667 25.4583V6.36458L18.4083 17.2333C18.7473 17.4876 19.1596 17.625 19.5833 17.625C20.0071 17.625 20.4194 17.4876 20.7583 17.2333L35.25 6.36458V25.4583C35.25 25.9777 35.0437 26.4758 34.6764 26.8431C34.3092 27.2103 33.811 27.4167 33.2917 27.4167Z" fill="#37504E"/>
</svg>
