<svg width="24" height="41" viewBox="0 0 24 41" fill="none" xmlns="http://www.w3.org/2000/svg">
<path id="Vector" d="M24 1.62388C24 1.32929 23.8851 1.04677 23.6805 0.838466C23.4759 0.63016 23.1984 0.513135 22.9091 0.513135H17.4545C14.7079 0.373827 12.0188 1.34706 9.97467 3.2202C7.93057 5.09334 6.69771 7.71409 6.54545 10.5099V16.5079H1.09091C0.801582 16.5079 0.524105 16.6249 0.31952 16.8332C0.114935 17.0415 0 17.324 0 17.6186V23.3945C0 23.6891 0.114935 23.9716 0.31952 24.1799C0.524105 24.3882 0.801582 24.5053 1.09091 24.5053H6.54545V39.3893C6.54545 39.6838 6.66039 39.9664 6.86497 40.1747C7.06956 40.383 7.34704 40.5 7.63636 40.5H14.1818C14.4711 40.5 14.7486 40.383 14.9532 40.1747C15.1578 39.9664 15.2727 39.6838 15.2727 39.3893V24.5053H20.9891C21.2317 24.5088 21.4685 24.4299 21.6621 24.281C21.8558 24.1322 21.9951 23.9218 22.0582 23.6833L23.6291 17.9074C23.6725 17.7433 23.6783 17.5712 23.6461 17.4045C23.614 17.2377 23.5446 17.0806 23.4434 16.9454C23.3423 16.8103 23.212 16.7005 23.0626 16.6246C22.9132 16.5488 22.7487 16.5088 22.5818 16.5079H15.2727V10.5099C15.327 9.95998 15.5806 9.45045 15.9841 9.08075C16.3875 8.71105 16.9118 8.50774 17.4545 8.51051H22.9091C23.1984 8.51051 23.4759 8.39348 23.6805 8.18518C23.8851 7.97687 24 7.69435 24 7.39976V1.62388Z" fill="#231F20"/>
</svg>
