<svg width="33" height="35" viewBox="0 0 33 35" fill="none" xmlns="http://www.w3.org/2000/svg">
<g id="&#240;&#159;&#166;&#134; icon &#34;google&#34;">
<path id="Vector" d="M25.0166 20.8332C24.5479 22.5305 23.619 24.0512 22.3413 25.2129C21.0635 26.3747 19.491 27.1282 17.8123 27.3832C16.4996 27.5814 15.1619 27.5015 13.8796 27.1482C12.5972 26.7949 11.3967 26.1755 10.35 25.3271C9.30338 24.4788 8.43218 23.419 7.78873 22.2114C7.14528 21.0038 6.74286 19.6733 6.60562 18.2998C6.49931 16.9209 6.66897 15.5341 7.10387 14.2269C7.53877 12.9197 8.22946 11.7207 9.13226 10.7057C10.0351 9.69066 11.1303 8.88166 12.3488 8.32984C13.5673 7.77802 14.8826 7.4954 16.2114 7.49983C17.4565 7.50166 18.6899 7.75054 19.8455 8.23317C20.0275 8.31821 20.2334 8.32947 20.4229 8.26473C20.6125 8.19999 20.7719 8.06392 20.8701 7.88317L23.1755 3.4665C23.2251 3.36477 23.255 3.25384 23.2633 3.14008C23.2717 3.02631 23.2584 2.91195 23.2241 2.80356C23.1899 2.69516 23.1355 2.59487 23.064 2.50843C22.9924 2.42199 22.9052 2.3511 22.8073 2.29983C20.3318 1.13302 17.6117 0.641404 14.9032 0.871282C12.1948 1.10116 9.5871 2.04497 7.32581 3.61382C5.06452 5.18266 3.22404 7.32491 1.97771 9.8388C0.731377 12.3527 0.120219 15.1555 0.201797 17.9832C0.359564 22.183 2.01788 26.1702 4.8519 29.1637C7.68592 32.1572 11.4914 33.9413 15.5229 34.1665C19.7461 34.3615 23.872 32.8096 27.0003 29.8496C30.1285 26.8896 32.0052 22.7616 32.2209 18.3665C32.2209 18.0332 32.2209 16.1165 32.2209 15.0332C32.2168 14.8135 32.1312 14.604 31.9819 14.4486C31.8327 14.2933 31.6315 14.2041 31.4204 14.1998H17.0118C16.7995 14.1998 16.5959 14.2876 16.4458 14.4439C16.2957 14.6002 16.2114 14.8122 16.2114 15.0332V20.0332C16.2114 20.2542 16.2957 20.4661 16.4458 20.6224C16.5959 20.7787 16.7995 20.8665 17.0118 20.8665H25.0166" fill="#231F20"/>
</g>
</svg>
