<svg width="38" height="47" viewBox="0 0 38 47" fill="none" xmlns="http://www.w3.org/2000/svg">
<path id="padlock" d="M18.8 25.85C18.0845 25.8416 17.3837 26.0527 16.7918 26.4547C16.1999 26.8567 15.7453 27.4303 15.4894 28.0985C15.2334 28.7666 15.1882 29.4972 15.3599 30.1918C15.5317 30.8864 15.9121 31.5117 16.45 31.9835V35.25C16.45 35.8733 16.6976 36.471 17.1383 36.9117C17.579 37.3524 18.1767 37.6 18.8 37.6C19.4233 37.6 20.021 37.3524 20.4617 36.9117C20.9024 36.471 21.15 35.8733 21.15 35.25V31.9835C21.6879 31.5117 22.0683 30.8864 22.2401 30.1918C22.4118 29.4972 22.3666 28.7666 22.1107 28.0985C21.8547 27.4303 21.4001 26.8567 20.8082 26.4547C20.2163 26.0527 19.5155 25.8416 18.8 25.85ZM30.55 16.45V11.75C30.55 8.63371 29.3121 5.64505 27.1085 3.4415C24.905 1.23794 21.9163 0 18.8 0C15.6837 0 12.695 1.23794 10.4915 3.4415C8.28794 5.64505 7.05 8.63371 7.05 11.75V16.45C5.18022 16.45 3.38703 17.1928 2.0649 18.5149C0.742766 19.837 0 21.6302 0 23.5V39.95C0 41.8198 0.742766 43.613 2.0649 44.9351C3.38703 46.2572 5.18022 47 7.05 47H30.55C32.4198 47 34.213 46.2572 35.5351 44.9351C36.8572 43.613 37.6 41.8198 37.6 39.95V23.5C37.6 21.6302 36.8572 19.837 35.5351 18.5149C34.213 17.1928 32.4198 16.45 30.55 16.45ZM11.75 11.75C11.75 9.88022 12.4928 8.08703 13.8149 6.7649C15.137 5.44277 16.9302 4.7 18.8 4.7C20.6698 4.7 22.463 5.44277 23.7851 6.7649C25.1072 8.08703 25.85 9.88022 25.85 11.75V16.45H11.75V11.75ZM32.9 39.95C32.9 40.5733 32.6524 41.171 32.2117 41.6117C31.771 42.0524 31.1733 42.3 30.55 42.3H7.05C6.42674 42.3 5.82901 42.0524 5.3883 41.6117C4.94759 41.171 4.7 40.5733 4.7 39.95V23.5C4.7 22.8767 4.94759 22.279 5.3883 21.8383C5.82901 21.3976 6.42674 21.15 7.05 21.15H30.55C31.1733 21.15 31.771 21.3976 32.2117 21.8383C32.6524 22.279 32.9 22.8767 32.9 23.5V39.95Z" fill="#37504E"/>
</svg>
