<svg width="41" height="40" viewBox="0 0 41 40" fill="none" xmlns="http://www.w3.org/2000/svg">
<g id="&#240;&#159;&#166;&#134; icon &#34;twitter&#34;">
<path id="Vector" d="M12.0439 39.9909C15.3277 40.1145 18.6002 39.4961 21.6681 38.172C24.7359 36.8479 27.5368 34.8451 29.9052 32.2819C32.2736 29.7187 34.1615 26.6472 35.4573 23.2488C36.753 19.8504 37.4304 16.1942 37.4493 12.4961C38.9542 10.4001 40.0717 7.98657 40.736 5.39749C40.7856 5.19293 40.7816 4.9766 40.7245 4.77455C40.6674 4.57249 40.5596 4.39332 40.4141 4.25862C40.2686 4.12392 40.0916 4.03943 39.9045 4.01532C39.7173 3.99121 39.5279 4.02852 39.3592 4.12274C38.5719 4.54929 37.6855 4.68707 36.825 4.51667C35.9644 4.34628 35.173 3.87629 34.5623 3.17292C33.7828 2.21205 32.8397 1.43708 31.7892 0.893922C30.7386 0.350768 29.6019 0.0504819 28.4463 0.0108572C27.2907 -0.0287676 26.1398 0.193075 25.0618 0.66324C23.9838 1.1334 23.0007 1.84233 22.1705 2.748C21.0339 3.98691 20.2014 5.53569 19.7539 7.24383C19.3064 8.95196 19.2591 10.7613 19.6167 12.4961C12.1771 12.996 7.06941 9.0218 2.98322 3.57284C2.86046 3.41637 2.69988 3.30353 2.52109 3.24808C2.34229 3.19263 2.15302 3.19698 1.97639 3.2606C1.79975 3.32422 1.6434 3.44435 1.52642 3.60633C1.40944 3.7683 1.3369 3.96511 1.31766 4.17273C0.539214 9.03285 1.10075 14.0447 2.92685 18.5352C4.75296 23.0256 7.75617 26.7796 11.5331 29.2929C9.00066 32.5619 5.44428 34.6036 1.60635 34.9918C1.40074 35.0302 1.21093 35.14 1.06349 35.3058C0.916057 35.4716 0.81837 35.6852 0.784106 35.9165C0.749841 36.1479 0.780714 36.3856 0.872402 36.5963C0.964091 36.8069 1.11201 36.9801 1.29545 37.0914C4.6344 38.9695 8.31132 39.9614 12.0439 39.9909Z" fill="#231F20"/>
</g>
</svg>
