<svg width="64" height="64" viewBox="0 0 64 64" fill="none" xmlns="http://www.w3.org/2000/svg">
<g id="&#240;&#159;&#166;&#134; icon &#34;User avatar filled alt&#34;">
<path id="Vector" d="M31.9996 16C30.0218 16 28.0884 16.5865 26.4439 17.6853C24.7994 18.7841 23.5177 20.3459 22.7608 22.1732C22.004 24.0004 21.8059 26.0111 22.1918 27.9509C22.5776 29.8907 23.53 31.6725 24.9286 33.0711C26.3271 34.4696 28.1089 35.422 30.0487 35.8079C31.9885 36.1937 33.9992 35.9957 35.8265 35.2388C37.6537 34.4819 39.2155 33.2002 40.3143 31.5557C41.4131 29.9112 41.9996 27.9778 41.9996 26C41.9996 23.3478 40.9461 20.8043 39.0707 18.9289C37.1953 17.0536 34.6518 16 31.9996 16Z" fill="#586C89"/>
<path id="Vector_2" d="M32.0004 4C26.4625 4 21.049 5.64217 16.4444 8.71885C11.8398 11.7955 8.25101 16.1685 6.13175 21.2849C4.0125 26.4012 3.458 32.0311 4.53839 37.4625C5.61878 42.894 8.28552 47.8831 12.2014 51.799C16.1173 55.7149 21.1064 58.3816 26.5379 59.462C31.9693 60.5424 37.5992 59.9879 42.7155 57.8686C47.8318 55.7494 52.2048 52.1605 55.2815 47.556C58.3582 42.9514 60.0004 37.5379 60.0004 32C59.992 24.5765 57.0393 17.4595 51.7901 12.2102C46.5409 6.96104 39.4239 4.00836 32.0004 4ZM47.9854 49.8516C47.9456 47.2281 46.8767 44.7252 45.0089 42.8824C43.1412 41.0397 40.6242 40.0045 38.0004 40H26.0004C23.3766 40.0045 20.8596 41.0397 18.9918 42.8824C17.1241 44.7252 16.0551 47.2281 16.0154 49.8516C12.3885 46.6131 9.83084 42.3493 8.68105 37.6249C7.53126 32.9005 7.84358 27.9383 9.57665 23.3953C11.3097 18.8524 14.3818 14.9429 18.3861 12.1847C22.3904 9.42653 27.1381 7.94965 32.0004 7.94965C36.8627 7.94965 41.6103 9.42653 45.6146 12.1847C49.6189 14.9429 52.691 18.8524 54.4241 23.3953C56.1572 27.9383 56.4695 32.9005 55.3197 37.6249C54.1699 42.3493 51.6123 46.6131 47.9854 49.8516Z" fill="#586C89"/>
</g>
</svg>
